<svg width="224" height="50" viewBox="0 0 224 50" fill="none" xmlns="http://www.w3.org/2000/svg">
<g id="GeoNadir_Logo_1">
<g id="Group">
<g id="Group_2">
<path id="Vector" d="M100.74 21.3977L100.813 38.8299H96.1418L96.1785 10.5181L116.689 29.3696L116.615 11.2836H121.287L121.25 39.8512L100.74 21.3977Z" fill="#00ACBB"/>
<path id="Vector_2" d="M146.869 38.8279L144.35 33.4429H131.54L129.057 38.8279H123.838L138.001 10.1526L152.088 38.8299H146.869V38.8279ZM138.439 20.6688C138.255 20.3053 138.001 19.686 137.964 19.3591C137.891 19.686 137.6 20.2687 137.416 20.6688L133.474 29.2214H142.416L138.439 20.6688Z" fill="#00ACBB"/>
<path id="Vector_3" d="M154.715 38.8279V11.2795H162.708C170.955 11.2795 177.671 16.0472 177.671 25.073C177.671 33.8063 171.43 38.8279 162.014 38.8279H154.715ZM162.635 34.6064C168.145 34.6064 172.708 31.8773 172.708 24.9633C172.708 19.2494 168.729 15.501 163.182 15.501H159.387V34.6064H162.635Z" fill="#00ACBB"/>
<path id="Vector_4" d="M182.452 35.8186V11.2795H187.124V35.8186L184.788 39.8472L182.452 35.8186Z" fill="#00ACBB"/>
<path id="Vector_5" d="M207.357 38.8279L197.978 28.6386H197.249V38.8279H192.577V11.2795H198.417C203.527 11.2795 210.132 12.5892 210.132 19.7956C210.132 23.5805 207.176 27.1827 202.905 27.9462L213.818 38.8279H207.357ZM199.073 24.5999C203.197 24.5999 205.241 22.4881 205.241 20.0515C205.241 17.1031 203.38 15.5396 199.403 15.5396H197.251V24.6019H199.073V24.5999Z" fill="#00ACBB"/>
</g>
<g id="Group_3">
<g id="Group_4">
<g id="Group_5">
<path id="Vector_6" d="M81.4783 23.1054C80.1119 23.1054 79.0021 22.0008 79.0021 20.6363C79.0021 20.1124 79.167 19.6291 79.446 19.2291C78.7353 18.9448 77.9595 18.7844 77.147 18.7844C73.73 18.7844 70.9585 21.548 70.9585 24.9552C70.9585 28.3625 73.73 31.126 77.147 31.126C80.5639 31.126 83.3354 28.3625 83.3354 24.9552C83.3354 24.145 83.1745 23.3714 82.8894 22.6628C82.4883 22.9409 82.0036 23.1054 81.4783 23.1054ZM77.147 27.4244C75.7806 27.4244 74.6708 26.3198 74.6708 24.9552C74.6708 23.5907 75.7785 22.4861 77.147 22.4861C78.5154 22.4861 79.6231 23.5907 79.6231 24.9552C79.6231 26.3198 78.5133 27.4244 77.147 27.4244Z" fill="#01788C"/>
<path id="Vector_7" d="M77.147 23.7227C76.4628 23.7227 75.9089 24.275 75.9089 24.9572C75.9089 25.6395 76.4628 26.1918 77.147 26.1918C77.8312 26.1918 78.3851 25.6395 78.3851 24.9572C78.3851 24.275 77.8312 23.7227 77.147 23.7227Z" fill="#01788C"/>
</g>
<path id="Vector_8" d="M77.2017 14.7173C71.6181 14.7173 67.0261 19.1134 67.0261 24.8273C67.0261 30.2489 71.5081 35.2318 76.9452 35.2318C82.7487 35.2318 87.2674 30.7261 87.2674 25.0466C87.2674 19.1134 82.6754 14.7173 77.2017 14.7173ZM77.1468 33.3353C72.6179 33.3353 68.9342 29.5849 68.9342 24.9756C68.9342 20.3662 72.6179 16.6158 77.1468 16.6158C81.6756 16.6158 85.3593 20.3662 85.3593 24.9756C85.3593 29.5849 81.6756 33.3353 77.1468 33.3353Z" fill="#00ACBB"/>
<path id="Vector_9" d="M77.2019 10.4673C68.7531 10.4673 62.0291 17.0239 62.0291 24.9735C62.0291 32.8865 68.7531 39.4431 77.2019 39.4431C85.3574 39.4431 92.2647 32.9596 92.2647 25.0831C92.2647 16.7315 85.5774 10.4673 77.2019 10.4673ZM67.0262 24.8273C67.0262 19.1133 71.6182 14.7172 77.2019 14.7172C82.6756 14.7172 87.2675 19.1133 87.2675 25.0486C87.2675 30.726 82.7489 35.2338 76.9453 35.2338C71.5082 35.2317 67.0262 30.2488 67.0262 24.8273Z" fill="#01788C"/>
</g>
<g id="Group_6">
<path id="Vector_10" d="M60.9193 34.2612H42.0179C41.0303 35.9689 39.7759 37.504 38.3057 38.8035H64.8861C63.3222 37.5101 61.9782 35.977 60.9193 34.2612Z" fill="#01788C"/>
<path id="Vector_11" d="M42.0179 15.6878H60.9315C61.9904 13.972 63.3344 12.439 64.8983 11.1455H38.0247C39.5947 12.4268 40.9468 13.9619 42.0179 15.6878Z" fill="#01788C"/>
<path id="Vector_12" d="M44.4452 25.2173C44.4452 25.9036 44.4025 26.5797 44.3292 27.2458H58.4288C58.3331 26.5066 58.2781 25.7553 58.2781 24.9919C58.2781 24.2162 58.3351 23.4527 58.4329 22.7014H44.2681C44.3801 23.5258 44.4452 24.3644 44.4452 25.2173Z" fill="#01788C"/>
</g>
<path id="Vector_13" d="M40.2279 22.7033H37.7354V22.685H24.434C26.004 23.9643 27.3562 25.5014 28.4273 27.2274H35.19C34.2024 31.8367 30.1358 35.2317 25.0979 35.2317C19.6608 35.2317 15.1788 30.2488 15.1788 24.8273C15.1788 19.1133 19.7708 14.7172 25.3544 14.7172C28.2318 14.7172 30.8628 15.9335 32.7138 17.9458L35.361 14.0471C32.7077 11.7973 29.2113 10.4673 25.3544 10.4673C16.9057 10.4673 10.1816 17.0259 10.1816 24.9755C10.1816 32.8885 16.9057 39.4451 25.3544 39.4451C33.51 39.4451 40.4173 32.9616 40.4173 25.0851C40.4173 24.2689 40.3521 23.4749 40.2279 22.7033Z" fill="#01788C"/>
</g>
</g>
</g>
</svg>
